<?xml version="1.0" encoding="UTF-8"?>
<svg id="Layer_1" data-name="Layer 1" xmlns="http://www.w3.org/2000/svg" viewBox="0 0 938.18 529.33">
  <defs>
    <style>
      .cls-1 {
        fill: #fff;
      }

      .cls-1, .cls-2 {
        stroke-width: 0px;
      }

      .cls-2 {
        fill: #036955;
      }
    </style>
  </defs>
  <g>
    <path class="cls-2" d="M179.93,411.19c-19.06,19.06-41.25,28.59-66.59,28.59-15.7,0-30.43-3.14-44.22-9.41s-25.79-14.91-35.99-25.89c-10.2-10.98-18.27-23.93-24.22-38.84-5.94-14.91-8.91-31-8.91-48.26,0-16.37,2.97-31.78,8.91-46.24,5.94-14.46,14.13-27.13,24.55-38,10.43-10.88,22.7-19.51,36.83-25.9,14.13-6.39,29.48-9.59,46.08-9.59,22.42,0,41.65,4.71,57.68,14.13,16.03,9.42,28.08,22.09,36.15,38l-34.64,25.56c-6.06-11.88-14.52-20.97-25.39-27.24-10.88-6.28-22.7-9.42-35.48-9.42-10.1,0-19.35,2.13-27.75,6.39-8.41,4.26-15.58,10.09-21.52,17.49-5.94,7.4-10.54,15.92-13.79,25.56-3.25,9.64-4.87,19.84-4.87,30.61s1.79,21.7,5.38,31.45c3.59,9.75,8.52,18.22,14.8,25.39,6.28,7.18,13.73,12.84,22.36,16.98,8.63,4.15,17.99,6.22,28.09,6.22,23.09,0,43.94-10.88,62.55-32.63v-16.81h-48.09v-33.97h86.43v122.76h-38.34v-26.91Z"/>
    <path class="cls-2" d="M253.51,237.32v-44.73h45.07v44.73h-45.07ZM253.51,438.1v-176.23h45.07v176.23h-45.07Z"/>
    <path class="cls-2" d="M333.82,192.59h45.07v189.01c0,6.5,1.57,11.55,4.71,15.14,3.14,3.59,7.62,5.38,13.45,5.38,2.69,0,5.66-.44,8.91-1.34,3.25-.9,6.34-2.02,9.25-3.37l6.06,34.31c-6.06,2.91-13.12,5.16-21.19,6.73-8.07,1.57-15.36,2.36-21.86,2.36-14.13,0-25.06-3.75-32.79-11.27-7.73-7.51-11.6-18.22-11.6-32.12v-204.82Z"/>
    <path class="cls-2" d="M512.93,439.11c-11.89,0-22.65-2.35-32.29-7.06-9.64-4.71-17.99-11.15-25.06-19.34-7.06-8.18-12.5-17.66-16.31-28.42-3.81-10.76-5.71-22.2-5.71-34.31,0-12.78,2.02-24.66,6.05-35.65,4.04-10.98,9.64-20.62,16.82-28.92,7.17-8.3,15.8-14.8,25.89-19.51,10.09-4.71,21.19-7.06,33.3-7.06,13.68,0,25.67,3.09,35.98,9.25,10.31,6.16,18.84,14.41,25.56,24.72v-30.94h39.35v167.82c0,13-2.47,24.66-7.4,34.98-4.93,10.31-11.72,19.05-20.35,26.23-8.63,7.17-18.95,12.66-30.94,16.48-12,3.81-25.06,5.71-39.18,5.71-19.28,0-35.48-3.2-48.6-9.58-13.12-6.4-24.38-15.42-33.8-27.08l24.55-23.88c6.73,8.3,15.19,14.8,25.39,19.51,10.2,4.71,21.02,7.06,32.45,7.06,6.95,0,13.62-.95,20.01-2.86,6.39-1.91,12.05-4.88,16.98-8.91,4.93-4.04,8.8-9.2,11.6-15.47,2.8-6.28,4.2-13.68,4.2-22.2v-22.2c-5.83,10.1-14.01,17.88-24.55,23.38-10.54,5.49-21.86,8.24-33.96,8.24ZM528.07,403.12c4.93,0,9.64-.78,14.13-2.35,4.48-1.57,8.63-3.7,12.44-6.39,3.81-2.69,7.18-5.83,10.09-9.42,2.91-3.59,5.16-7.4,6.73-11.43v-42.04c-4.04-10.31-10.37-18.61-19-24.89-8.63-6.28-17.66-9.42-27.08-9.42-6.95,0-13.23,1.52-18.84,4.54-5.61,3.03-10.43,7.06-14.46,12.11-4.04,5.05-7.12,10.82-9.25,17.32-2.13,6.5-3.2,13.23-3.2,20.18s1.23,13.9,3.7,20.18c2.46,6.28,5.88,11.77,10.26,16.48,4.37,4.71,9.47,8.41,15.3,11.1,5.83,2.69,12.22,4.04,19.17,4.04Z"/>
    <path class="cls-2" d="M701.82,441.46c-8.52,0-16.48-1.4-23.88-4.2-7.4-2.8-13.79-6.72-19.17-11.77-5.38-5.05-9.59-10.93-12.61-17.66-3.03-6.73-4.54-14.13-4.54-22.2s1.85-15.98,5.55-23.04c3.7-7.06,8.86-13.06,15.47-17.99,6.61-4.93,14.52-8.8,23.71-11.6,9.19-2.8,19.28-4.2,30.27-4.2,7.84,0,15.52.68,23.04,2.02,7.51,1.34,14.18,3.25,20.01,5.71v-10.09c0-11.66-3.31-20.62-9.92-26.9-6.62-6.28-16.43-9.42-29.43-9.42-9.42,0-18.61,1.68-27.58,5.05-8.97,3.36-18.17,8.29-27.58,14.79l-13.79-28.59c22.64-15.02,47.08-22.53,73.32-22.53s45.01,6.22,59.02,18.66c14.01,12.45,21.02,30.44,21.02,53.98v54.82c0,4.71.84,8.08,2.52,10.09,1.68,2.02,4.43,3.14,8.24,3.36v38.34c-7.63,1.57-14.24,2.36-19.84,2.36-8.52,0-15.08-1.91-19.67-5.72-4.6-3.81-7.46-8.86-8.58-15.13l-1.01-9.75c-7.85,10.31-17.38,18.16-28.59,23.54-11.21,5.38-23.21,8.07-35.98,8.07ZM714.59,408.51c7.62,0,14.85-1.34,21.69-4.04,6.84-2.69,12.16-6.28,15.98-10.77,4.93-3.81,7.4-8.07,7.4-12.78v-20.18c-5.38-2.02-11.21-3.64-17.49-4.87-6.28-1.23-12.33-1.85-18.16-1.85-11.66,0-21.19,2.64-28.59,7.91-7.4,5.27-11.1,11.94-11.1,20.01,0,7.63,2.91,13.96,8.74,19,5.83,5.05,13,7.57,21.52,7.57Z"/>
    <path class="cls-2" d="M850.73,192.59h45.07v189.01c0,6.5,1.57,11.55,4.71,15.14,3.14,3.59,7.62,5.38,13.45,5.38,2.69,0,5.66-.44,8.91-1.34,3.25-.9,6.34-2.02,9.25-3.37l6.06,34.31c-6.06,2.91-13.12,5.16-21.19,6.73-8.07,1.57-15.36,2.36-21.86,2.36-14.13,0-25.06-3.75-32.79-11.27-7.73-7.51-11.6-18.22-11.6-32.12v-204.82Z"/>
  </g>
  <path class="cls-2" d="M444.11,241.91c-3.12,0-5.71-2.48-5.82-5.62-.1-2.74-.15-5.5-.15-8.22C438.14,102.31,540.45,0,666.21,0c46.92,0,91.98,14.14,130.33,40.88,37.47,26.14,65.97,62.38,82.41,104.81,1.16,3-.33,6.38-3.33,7.54-3,1.17-6.38-.33-7.54-3.33-15.6-40.26-42.64-74.65-78.21-99.46-36.38-25.37-79.14-38.78-123.66-38.78-119.33,0-216.41,97.08-216.41,216.41,0,2.58.05,5.21.14,7.81.11,3.22-2.4,5.92-5.62,6.03-.07,0-.14,0-.21,0Z"/>
  <g>
    <path class="cls-2" d="M84.11,501.28c0,1.79-.34,3.46-1.03,5-.69,1.54-1.63,2.88-2.83,4.03-1.19,1.15-2.6,2.05-4.2,2.69-1.61.64-3.31.97-5.1.97h-22.88v-48.94h22.81c1.7,0,3.24.37,4.62,1.1,1.38.74,2.55,1.69,3.52,2.86.96,1.17,1.71,2.51,2.24,4,.53,1.49.79,3,.79,4.51,0,2.48-.62,4.76-1.86,6.82-1.24,2.07-2.96,3.58-5.17,4.55,2.8.83,5.02,2.38,6.65,4.65,1.63,2.27,2.45,4.86,2.45,7.75ZM51.58,468.2v19.57h17.92c1.33,0,2.55-.28,3.65-.83,1.1-.55,2.06-1.28,2.86-2.17s1.44-1.94,1.9-3.14c.46-1.19.69-2.41.69-3.65,0-1.33-.22-2.59-.65-3.76-.44-1.17-1.03-2.21-1.79-3.1-.76-.9-1.67-1.61-2.72-2.14-1.06-.53-2.23-.79-3.52-.79h-18.33ZM80.6,500.8c0-1.29-.23-2.54-.69-3.76-.46-1.22-1.1-2.3-1.93-3.24-.83-.94-1.8-1.69-2.93-2.24s-2.33-.83-3.62-.83h-19.85v20.06h19.37c1.38,0,2.65-.28,3.83-.83,1.17-.55,2.18-1.3,3.03-2.24.85-.94,1.53-2.01,2.03-3.2.5-1.19.76-2.44.76-3.72Z"/>
    <path class="cls-2" d="M92.66,469.99v-6.34h3.45v6.34h-3.45ZM92.66,513.96v-35.84h3.45v35.84h-3.45Z"/>
    <path class="cls-2" d="M123.88,481.22c-3.22.09-6.03,1.05-8.44,2.86-2.41,1.82-4.1,4.31-5.07,7.48v22.4h-3.45v-35.84h3.31v8.82c1.24-2.53,2.88-4.58,4.93-6.17,2.04-1.59,4.24-2.49,6.58-2.72.46-.04.87-.07,1.24-.07h.9v3.24Z"/>
    <path class="cls-2" d="M183.08,513.96h-3.45v-19.99c0-4.55-.7-7.9-2.1-10.06-1.4-2.16-3.55-3.24-6.44-3.24-1.47,0-2.87.28-4.2.83-1.33.55-2.55,1.32-3.65,2.31-1.1.99-2.06,2.16-2.86,3.51-.8,1.36-1.44,2.86-1.89,4.51v22.12h-3.45v-19.99c0-4.59-.69-7.96-2.07-10.1s-3.51-3.2-6.41-3.2c-1.47,0-2.86.27-4.17.79-1.31.53-2.52,1.29-3.62,2.27-1.1.99-2.08,2.16-2.93,3.52-.85,1.36-1.51,2.86-1.96,4.51v22.19h-3.45v-35.84h3.24v8.55c1.47-2.89,3.4-5.15,5.79-6.75,2.39-1.61,5.03-2.41,7.93-2.41s5.49.9,7.37,2.69c1.88,1.79,3.01,4.14,3.38,7.03,3.4-6.48,8.09-9.72,14.06-9.72,3.91,0,6.7,1.39,8.37,4.17,1.68,2.78,2.52,6.67,2.52,11.68v20.61Z"/>
    <path class="cls-2" d="M193.49,469.99v-6.34h3.45v6.34h-3.45ZM193.49,513.96v-35.84h3.45v35.84h-3.45Z"/>
    <path class="cls-2" d="M237.05,513.96h-3.45v-19.99c0-4.64-.65-8.02-1.96-10.13-1.31-2.11-3.39-3.17-6.24-3.17-1.52,0-3.02.28-4.51.83-1.49.55-2.88,1.33-4.17,2.34-1.29,1.01-2.41,2.19-3.38,3.55-.97,1.36-1.68,2.82-2.14,4.38v22.19h-3.45v-35.84h3.24v8.55c.74-1.38,1.64-2.63,2.72-3.76,1.08-1.13,2.3-2.09,3.65-2.9,1.35-.8,2.79-1.42,4.31-1.86,1.52-.44,3.08-.65,4.69-.65,3.91,0,6.66,1.37,8.27,4.1,1.61,2.73,2.41,6.65,2.41,11.75v20.61Z"/>
    <path class="cls-2" d="M261.93,514.51c-2.48,0-4.76-.52-6.82-1.55-2.07-1.03-3.85-2.41-5.34-4.14-1.49-1.72-2.67-3.69-3.52-5.89-.85-2.21-1.27-4.48-1.27-6.82s.4-4.78,1.21-7.03c.8-2.25,1.94-4.24,3.41-5.96,1.47-1.72,3.23-3.09,5.27-4.1,2.04-1.01,4.31-1.52,6.79-1.52,3.12,0,5.85.82,8.17,2.45,2.32,1.63,4.28,3.62,5.89,5.96v-7.79h3.17v36.53c0,2.44-.46,4.57-1.38,6.41-.92,1.84-2.15,3.36-3.69,4.58-1.54,1.22-3.33,2.14-5.37,2.76-2.05.62-4.19.93-6.45.93-2.07,0-3.93-.2-5.58-.59-1.65-.39-3.11-.94-4.38-1.65-1.26-.71-2.39-1.58-3.38-2.62s-1.85-2.17-2.59-3.41l2.34-1.59c1.42,2.44,3.35,4.22,5.79,5.34,2.43,1.13,5.03,1.69,7.79,1.69,1.84,0,3.57-.25,5.2-.76,1.63-.51,3.06-1.25,4.27-2.24,1.22-.99,2.18-2.22,2.9-3.69.71-1.47,1.07-3.19,1.07-5.17v-7.86c-1.47,2.34-3.42,4.22-5.86,5.62-2.44,1.4-4.99,2.1-7.65,2.1ZM262.76,511.55c1.52,0,3-.29,4.45-.86,1.45-.57,2.76-1.32,3.93-2.24,1.17-.92,2.14-1.95,2.9-3.1.76-1.15,1.23-2.3,1.41-3.45v-11.79c-.55-1.38-1.29-2.65-2.2-3.82-.92-1.17-1.96-2.17-3.14-3s-2.44-1.48-3.79-1.96c-1.36-.48-2.72-.72-4.1-.72-2.16,0-4.09.46-5.79,1.38-1.7.92-3.14,2.11-4.31,3.58-1.17,1.47-2.07,3.14-2.69,5s-.93,3.73-.93,5.62c0,2.07.37,4.02,1.1,5.86.73,1.84,1.75,3.47,3.03,4.89,1.29,1.43,2.8,2.55,4.55,3.38,1.75.83,3.61,1.24,5.58,1.24Z"/>
    <path class="cls-2" d="M318.93,513.96h-3.45v-19.99c0-8.87-2.96-13.3-8.89-13.3-1.47,0-2.91.28-4.31.83-1.4.55-2.71,1.33-3.93,2.34-1.22,1.01-2.29,2.19-3.21,3.55-.92,1.36-1.61,2.82-2.07,4.38v22.19h-3.45v-50.31h3.45v23.02c1.47-2.8,3.5-5.03,6.1-6.69,2.6-1.65,5.39-2.48,8.37-2.48,1.98,0,3.68.37,5.1,1.1,1.42.74,2.61,1.79,3.55,3.17.94,1.38,1.63,3.04,2.07,5,.44,1.95.65,4.15.65,6.58v20.61Z"/>
    <path class="cls-2" d="M338.16,514.65c-1.66,0-3.19-.29-4.62-.86s-2.68-1.35-3.76-2.34c-1.08-.99-1.92-2.16-2.52-3.51s-.9-2.81-.9-4.38.37-2.99,1.1-4.27c.74-1.29,1.76-2.4,3.07-3.34,1.31-.94,2.88-1.68,4.72-2.21,1.84-.53,3.86-.79,6.07-.79,1.93,0,3.87.17,5.82.52s3.71.82,5.27,1.41v-3.51c0-3.4-.96-6.1-2.89-8.1-1.93-2-4.55-3-7.86-3-1.75,0-3.6.37-5.55,1.1-1.95.74-3.94,1.79-5.96,3.17l-1.31-2.34c4.59-3.12,8.96-4.69,13.1-4.69s7.72,1.25,10.2,3.76c2.48,2.51,3.72,5.96,3.72,10.37v17.51c0,1.15.51,1.72,1.52,1.72v3.1c-.23.04-.47.08-.72.1-.25.02-.47.03-.65.03-.92,0-1.65-.31-2.2-.93-.55-.62-.87-1.37-.97-2.24v-2.96c-1.65,2.16-3.77,3.81-6.34,4.96-2.57,1.15-5.35,1.72-8.34,1.72ZM338.85,511.89c2.66,0,5.11-.51,7.34-1.52,2.23-1.01,3.94-2.34,5.14-4,.73-.97,1.1-1.88,1.1-2.76v-6.34c-1.65-.64-3.38-1.13-5.17-1.45-1.79-.32-3.65-.48-5.58-.48-1.79,0-3.42.2-4.89.59-1.47.39-2.73.93-3.79,1.62-1.06.69-1.87,1.53-2.45,2.52-.58.99-.86,2.08-.86,3.27s.23,2.32.69,3.38c.46,1.06,1.1,1.96,1.93,2.72s1.8,1.36,2.93,1.79c1.12.44,2.33.65,3.62.65Z"/>
    <path class="cls-2" d="M419,513.96h-3.45v-19.99c0-4.55-.7-7.9-2.1-10.06-1.4-2.16-3.55-3.24-6.44-3.24-1.47,0-2.87.28-4.2.83-1.33.55-2.55,1.32-3.65,2.31-1.1.99-2.06,2.16-2.86,3.51-.8,1.36-1.44,2.86-1.89,4.51v22.12h-3.45v-19.99c0-4.59-.69-7.96-2.07-10.1-1.38-2.14-3.51-3.2-6.41-3.2-1.47,0-2.86.27-4.17.79-1.31.53-2.52,1.29-3.62,2.27-1.1.99-2.08,2.16-2.93,3.52-.85,1.36-1.51,2.86-1.96,4.51v22.19h-3.45v-35.84h3.24v8.55c1.47-2.89,3.4-5.15,5.79-6.75,2.39-1.61,5.03-2.41,7.93-2.41s5.49.9,7.37,2.69c1.88,1.79,3.01,4.14,3.38,7.03,3.4-6.48,8.09-9.72,14.06-9.72,3.91,0,6.7,1.39,8.37,4.17,1.68,2.78,2.52,6.67,2.52,11.68v20.61Z"/>
  </g>
  <g>
    <path class="cls-2" d="M526.71,132.54s10.64,5.88,16.67-.63"/>
    <path class="cls-2" d="M535.88,136.17c-4.94,0-9.44-2.44-9.73-2.6-.57-.31-.77-1.02-.46-1.59.31-.57,1.02-.77,1.59-.46.1.05,9.92,5.35,15.25-.4.44-.47,1.18-.5,1.65-.06.47.44.5,1.18.06,1.65-2.43,2.62-5.47,3.46-8.37,3.46Z"/>
    <path class="cls-2" d="M526.71,132.54s10.16-6.67,16.67-.63"/>
    <path class="cls-2" d="M526.71,133.71c-.38,0-.76-.19-.98-.53-.35-.54-.2-1.26.34-1.62.45-.29,11.01-7.1,18.11-.51.47.44.5,1.18.06,1.65-.44.47-1.18.5-1.65.06-5.76-5.34-15.14.69-15.24.75-.2.13-.42.19-.64.19Z"/>
    <path class="cls-1" d="M663.63,226.86c-20.41,0-48.83-3.39-60.03-32.68-7.26-16.6-17.18-25.81-24.22-30.61-7.64-5.21-13.65-6.52-13.7-6.53l-.19-.04-.18-.08c-2.29-1.05-4.7-1.58-7.18-1.58-1.83,0-3.64.29-5.37.86-.23.08-.47.11-.71.11-.89,0-1.69-.53-2.05-1.35-.35-.81-.2-1.75.4-2.4,3.93-4.27,9.49-6.73,15.27-6.73.43,0,.87.02,1.34.05,5.71-12.77,18.26-20.95,32.33-20.95,1.34,0,2.71.08,4.06.23,12.44,1.39,23.32,9.47,28.4,21.09l.23.53-.13.56c-.66,2.92-1.13,5.64-1.45,8.3-1.04,8.68-.21,30.94,29.87,50.25,10.36,6.65,23.34,12.03,36.57,15.15l9.78,2.31-9.98,1.14c-10.03,1.15-21.68,2.38-33.05,2.38h0Z"/>
    <path class="cls-2" d="M599.33,126.69c1.27,0,2.57.07,3.87.22,12.12,1.35,22.29,9.3,26.99,20.05-.62,2.78-1.13,5.6-1.48,8.47-1.08,9.01-.25,32.1,30.66,51.94,10.73,6.89,23.92,12.27,37.11,15.38-10.68,1.23-21.95,2.36-32.85,2.36-25.31,0-48.69-6.14-58.41-31.6,0,0,0,0,0,0-14.46-33.08-39.19-38.18-39.19-38.18-2.41-1.11-5.09-1.74-7.92-1.74-2.07,0-4.06.34-5.92.95-.06.02-.11.03-.16.03-.39,0-.66-.48-.36-.81,3.47-3.78,8.44-6.16,13.98-6.16.83,0,1.64.07,2.45.17,4.99-12.35,17.08-21.07,31.22-21.07M599.33,123.18c-14.37,0-27.22,8.12-33.43,20.9-.08,0-.16,0-.24,0-6.27,0-12.31,2.66-16.57,7.3-1.07,1.17-1.35,2.85-.72,4.3.64,1.46,2.08,2.4,3.66,2.4.43,0,.85-.07,1.26-.2,1.56-.51,3.18-.77,4.82-.77,2.23,0,4.4.48,6.45,1.42l.36.17.39.08c.93.2,23.16,5.29,36.65,36.08,4.83,12.59,13.29,21.74,25.13,27.21,9.59,4.42,21.54,6.58,36.52,6.58,11.47,0,23.18-1.23,33.25-2.39l19.97-2.29-19.56-4.62c-13.04-3.08-25.83-8.37-36.02-14.92-29.24-18.77-30.08-40.22-29.08-48.57.31-2.6.77-5.26,1.42-8.12l.25-1.12-.46-1.05c-5.33-12.19-16.76-20.67-29.82-22.13-1.42-.16-2.85-.24-4.26-.24h0Z"/>
    <path class="cls-1" d="M774.37,239.85c-.59,0-1.16-.17-1.66-.5-5.97-3.94-27.52-16.81-54.36-16.81-1.08,0-2.18.02-3.28.06h-.09s-.09,0-.09,0c-18.04-1.15-38.71-7.93-53.94-17.7-9.83-6.31-32.38-23.74-29.34-49.13.49-4.07,1.27-8.08,2.41-12.27,1.42-4.87,3.19-9.81,5.26-14.72,3.06-6.96,6.96-14.23,12.56-23.41l-.05-.03,1-1.55c1.93-2.92,3.91-5.74,5.88-8.38,15.42-20.67,31.21-35.33,48.26-44.81,1.71-.95,3.51-1.91,5.5-2.92.3-.15.63-.23.96-.23.8,0,1.54.46,1.9,1.18.36.72.27,1.56-.21,2.2-2.45,3.23-10.36,15.05-9.38,31.6,1.31,22.15-3.88,35.75-9.88,45.11,10.01-7.25,26.99-22.8,38.26-50.53.33-.8,1.09-1.31,1.95-1.31,1,0,1.86.72,2.05,1.7.09.5.32,1.4.61,2.53,1.67,6.62,5.59,22.11,3.47,38.08-1.98,14.93-8.62,26.37-19.78,34.17,13.94-4.83,32.11-13.69,43.47-29.11.18-.24.72-.98,1.78-1.21.19-.04.38-.06.56-.06.8,0,1.52.37,2.03,1.03,2.7,3.53-1.39,20.78-1.44,20.95-5.39,19.84-16.47,32.5-33.87,38.71-5.93,2.12-12.4,3.72-19.87,4.89,21.7,3.53,58.49,14.6,62.37,49.08.1.86-.17,1.72-.75,2.36-.58.65-1.41,1.02-2.27,1.02h0Z"/>
    <path class="cls-2" d="M713.4,49.21c.27,0,.47.31.29.56-2.86,3.77-10.74,15.8-9.74,32.76,1.48,25.09-5.39,39.4-13.96,50.09-.2.25,0,.58.27.58.06,0,.12-.02.18-.05,6.44-3.71,30.68-19.58,45.27-55.49.06-.15.19-.22.32-.22.15,0,.29.09.33.27,1.25,6.68,20.08,62.24-28.14,79.72-.33.12-.23.58.08.58.02,0,.05,0,.08,0,12.04-2.72,42.41-11.55,58.89-33.9.2-.27.41-.46.73-.53.07-.01.13-.02.2-.02,3.16,0-.71,18.31-1.1,19.76-4.88,17.97-14.95,31.16-32.77,37.52-9.81,3.5-20.24,5.2-30.62,6.17-.46.04-.47.71,0,.75,16.86,1.36,67.45,8.78,71.97,48.9.09.81-.56,1.43-1.28,1.43-.23,0-.47-.07-.7-.21-6.74-4.46-28.27-17.1-55.33-17.1-1.11,0-2.22.02-3.34.06-17.79-1.13-37.99-7.73-53.1-17.43-9.56-6.13-31.47-23.04-28.55-47.44.49-4.11,1.3-8.09,2.36-12.02,1.43-4.93,3.18-9.76,5.19-14.49,3.53-8.03,8.07-16.09,13.37-24.7h-.01c1.87-2.83,3.8-5.6,5.82-8.31,12.96-17.37,28.61-33.71,47.7-44.32,1.79-1,3.61-1.96,5.44-2.88.06-.03.11-.04.17-.04M713.4,45.7h0c-.61,0-1.21.15-1.76.42-2,1.01-3.81,1.98-5.56,2.95-17.27,9.6-33.24,24.41-48.81,45.29-1.99,2.67-3.99,5.51-5.93,8.46l-2,3.03.12.07c-5.17,8.57-8.85,15.49-11.76,22.12-2.12,5-3.91,10.01-5.34,14.92v.03s-.02.03-.02.03c-1.16,4.27-1.96,8.36-2.46,12.52-3.16,26.38,20.02,44.32,30.13,50.81,15.46,9.93,36.45,16.82,54.77,17.98h.18s.18,0,.18,0c1.06-.04,2.14-.06,3.21-.06,26.35,0,47.53,12.64,53.39,16.52.79.52,1.7.8,2.63.8,1.36,0,2.67-.59,3.58-1.61.91-1.01,1.34-2.37,1.18-3.73-2.08-18.5-13.31-32.56-33.38-41.78-7.14-3.28-14.59-5.54-21.42-7.1,3.96-.91,7.64-1.98,11.14-3.23,17.98-6.42,29.42-19.47,34.98-39.9.25-.91,1.18-5.26,1.81-9.69,1.2-8.31.6-11.12-.67-12.78-.84-1.09-2.08-1.72-3.42-1.72-.31,0-.62.03-.93.1-1.13.24-2.08.87-2.82,1.88-8.69,11.79-21.5,19.67-33.23,24.81,6.9-7.46,11.15-17.02,12.69-28.61,2.17-16.31-1.81-32.03-3.5-38.75-.27-1.06-.5-1.97-.58-2.42-.34-1.82-1.93-3.13-3.77-3.13-1.58,0-2.98.95-3.57,2.41-8.88,21.84-21.32,36-30.98,44.44.99-2.17,1.85-4.4,2.6-6.73,2.99-9.24,4.09-19.62,3.38-31.73-.94-15.95,6.67-27.33,9.03-30.44.89-1.17,1.04-2.72.38-4.04-.65-1.31-2.01-2.15-3.47-2.15h0Z"/>
    <path class="cls-2" d="M559.52,126.49s-10.11,6.75-7.09,15.1"/>
    <path class="cls-2" d="M552.42,142.76c-.48,0-.93-.3-1.1-.77-3.29-9.11,7.1-16.17,7.54-16.47.54-.36,1.26-.22,1.62.32.36.54.22,1.26-.32,1.62-.09.06-9.31,6.35-6.64,13.73.22.61-.1,1.28-.7,1.5-.13.05-.27.07-.4.07Z"/>
    <path class="cls-2" d="M559.52,126.49s1.26,12.09-7.09,15.1"/>
    <path class="cls-2" d="M552.42,142.76c-.48,0-.93-.3-1.1-.77-.22-.61.1-1.28.7-1.5,7.38-2.66,6.34-13.77,6.33-13.88-.07-.64.4-1.22,1.04-1.28.66-.07,1.22.4,1.28,1.04.05.53,1.25,13.04-7.86,16.32-.13.05-.27.07-.4.07Z"/>
    <path class="cls-2" d="M550.56,168.32s7.7,9.4,15.72,5.59"/>
    <path class="cls-2" d="M562.26,176c-6.82,0-12.32-6.6-12.6-6.94-.41-.5-.34-1.24.16-1.65.5-.41,1.24-.34,1.65.16.07.09,7.22,8.64,14.32,5.27.58-.28,1.28-.03,1.56.55.28.58.03,1.28-.55,1.56-1.54.73-3.07,1.04-4.53,1.04Z"/>
    <path class="cls-2" d="M550.56,168.32s11.91-2.43,15.72,5.59"/>
    <path class="cls-2" d="M566.29,175.08c-.44,0-.86-.25-1.06-.67-3.37-7.09-14.32-4.97-14.43-4.94-.64.13-1.25-.28-1.38-.91-.13-.63.28-1.25.91-1.38.53-.11,12.86-2.51,17.01,6.23.28.58.03,1.28-.55,1.56-.16.08-.33.11-.5.11Z"/>
    <path class="cls-2" d="M557.97,147.97c-12.98-21.3-24.98-33.52-25.17-33.71-.91-.92-2.4-.92-3.31,0-.92.91-.92,2.39,0,3.31.19.19,11.79,12,24.4,32.67,1.27-.92,2.65-1.67,4.08-2.26Z"/>
    <path class="cls-2" d="M562.22,155.24c-1.84-.44-3.74-.57-5.61-.41,6.64,11.46,13.35,25.27,18.64,41.07.33.98,1.24,1.6,2.22,1.6.25,0,.5-.04.74-.12,1.22-.41,1.89-1.74,1.48-2.96-4.98-14.87-11.21-28.02-17.47-39.17Z"/>
  </g>
</svg>