<?xml version="1.0" encoding="UTF-8"?>
<svg id="Layer_1" data-name="Layer 1" xmlns="http://www.w3.org/2000/svg" viewBox="0 0 938.18 513.1">
  <defs>
    <style>
      .cls-1 {
        fill: #fff;
        stroke-width: 0px;
      }
    </style>
  </defs>
  <g>
    <path class="cls-1" d="M179.93,411.19c-19.06,19.06-41.25,28.59-66.59,28.59-15.7,0-30.43-3.14-44.22-9.41-13.79-6.28-25.79-14.91-35.99-25.89-10.2-10.98-18.27-23.93-24.22-38.84-5.94-14.91-8.91-31-8.91-48.26,0-16.37,2.97-31.78,8.91-46.24,5.94-14.46,14.13-27.13,24.55-38,10.43-10.88,22.7-19.51,36.83-25.9,14.13-6.39,29.48-9.59,46.08-9.59,22.42,0,41.65,4.71,57.68,14.13,16.03,9.42,28.08,22.09,36.15,38l-34.64,25.56c-6.06-11.88-14.52-20.97-25.39-27.24-10.88-6.28-22.7-9.42-35.48-9.42-10.1,0-19.35,2.13-27.75,6.39-8.41,4.26-15.58,10.09-21.52,17.49-5.94,7.4-10.54,15.92-13.79,25.56-3.25,9.64-4.87,19.84-4.87,30.61s1.79,21.7,5.38,31.45c3.59,9.75,8.52,18.22,14.8,25.39,6.28,7.18,13.73,12.84,22.36,16.98,8.63,4.15,17.99,6.22,28.09,6.22,23.09,0,43.94-10.88,62.55-32.63v-16.81h-48.09v-33.97h86.43v122.76h-38.34v-26.91Z"/>
    <path class="cls-1" d="M253.51,237.32v-44.73h45.07v44.73h-45.07ZM253.51,438.1v-176.23h45.07v176.23h-45.07Z"/>
    <path class="cls-1" d="M333.82,192.59h45.07v189.01c0,6.5,1.57,11.55,4.71,15.14,3.14,3.59,7.62,5.38,13.45,5.38,2.69,0,5.66-.44,8.91-1.34,3.25-.9,6.34-2.02,9.25-3.37l6.06,34.31c-6.06,2.91-13.12,5.16-21.19,6.73s-15.36,2.36-21.86,2.36c-14.13,0-25.06-3.75-32.79-11.27-7.73-7.51-11.6-18.22-11.6-32.12v-204.82Z"/>
    <path class="cls-1" d="M512.93,439.11c-11.89,0-22.65-2.35-32.29-7.06-9.64-4.71-17.99-11.15-25.06-19.34s-12.5-17.66-16.31-28.42c-3.81-10.76-5.71-22.2-5.71-34.31,0-12.78,2.02-24.66,6.05-35.65,4.04-10.98,9.64-20.62,16.82-28.92,7.17-8.3,15.8-14.8,25.89-19.51,10.09-4.71,21.19-7.06,33.3-7.06,13.68,0,25.67,3.09,35.98,9.25,10.31,6.16,18.84,14.41,25.56,24.72v-30.94h39.35v167.82c0,13-2.47,24.66-7.4,34.98-4.93,10.31-11.72,19.05-20.35,26.23-8.63,7.17-18.95,12.66-30.94,16.48-12,3.81-25.06,5.71-39.18,5.71-19.28,0-35.48-3.2-48.6-9.58-13.12-6.4-24.38-15.42-33.8-27.08l24.55-23.88c6.73,8.3,15.19,14.8,25.39,19.51,10.2,4.71,21.02,7.06,32.45,7.06,6.95,0,13.62-.95,20.01-2.86,6.39-1.91,12.05-4.88,16.98-8.91,4.93-4.04,8.8-9.2,11.6-15.47,2.8-6.28,4.2-13.68,4.2-22.2v-22.2c-5.83,10.1-14.01,17.88-24.55,23.38-10.54,5.49-21.86,8.24-33.96,8.24ZM528.07,403.12c4.93,0,9.64-.78,14.13-2.35,4.48-1.57,8.63-3.7,12.44-6.39s7.18-5.83,10.09-9.42c2.91-3.59,5.16-7.4,6.73-11.43v-42.04c-4.04-10.31-10.37-18.61-19-24.89-8.63-6.28-17.66-9.42-27.08-9.42-6.95,0-13.23,1.52-18.84,4.54-5.61,3.03-10.43,7.06-14.46,12.11-4.04,5.05-7.12,10.82-9.25,17.32-2.13,6.5-3.2,13.23-3.2,20.18s1.23,13.9,3.7,20.18c2.46,6.28,5.88,11.77,10.26,16.48,4.37,4.71,9.47,8.41,15.3,11.1,5.83,2.69,12.22,4.04,19.17,4.04Z"/>
    <path class="cls-1" d="M701.82,441.46c-8.52,0-16.48-1.4-23.88-4.2-7.4-2.8-13.79-6.72-19.17-11.77-5.38-5.05-9.59-10.93-12.61-17.66-3.03-6.73-4.54-14.13-4.54-22.2s1.85-15.98,5.55-23.04c3.7-7.06,8.86-13.06,15.47-17.99,6.61-4.93,14.52-8.8,23.71-11.6,9.19-2.8,19.28-4.2,30.27-4.2,7.84,0,15.52.68,23.04,2.02,7.51,1.34,14.18,3.25,20.01,5.71v-10.09c0-11.66-3.31-20.62-9.92-26.9-6.62-6.28-16.43-9.42-29.43-9.42-9.42,0-18.61,1.68-27.58,5.05-8.97,3.36-18.17,8.29-27.58,14.79l-13.79-28.59c22.64-15.02,47.08-22.53,73.32-22.53s45.01,6.22,59.02,18.66c14.01,12.45,21.02,30.44,21.02,53.98v54.82c0,4.71.84,8.08,2.52,10.09,1.68,2.02,4.43,3.14,8.24,3.36v38.34c-7.63,1.57-14.24,2.36-19.84,2.36-8.52,0-15.08-1.91-19.67-5.72-4.6-3.81-7.46-8.86-8.58-15.13l-1.01-9.75c-7.85,10.31-17.38,18.16-28.59,23.54-11.21,5.38-23.21,8.07-35.98,8.07ZM714.59,408.51c7.62,0,14.85-1.34,21.69-4.04,6.84-2.69,12.16-6.28,15.98-10.77,4.93-3.81,7.4-8.07,7.4-12.78v-20.18c-5.38-2.02-11.21-3.64-17.49-4.87-6.28-1.23-12.33-1.85-18.16-1.85-11.66,0-21.19,2.64-28.59,7.91-7.4,5.27-11.1,11.94-11.1,20.01,0,7.63,2.91,13.96,8.74,19,5.83,5.05,13,7.57,21.52,7.57Z"/>
    <path class="cls-1" d="M850.73,192.59h45.07v189.01c0,6.5,1.57,11.55,4.71,15.14,3.14,3.59,7.62,5.38,13.45,5.38,2.69,0,5.66-.44,8.91-1.34,3.25-.9,6.34-2.02,9.25-3.37l6.06,34.31c-6.06,2.91-13.12,5.16-21.19,6.73-8.07,1.57-15.36,2.36-21.86,2.36-14.13,0-25.06-3.75-32.79-11.27-7.73-7.51-11.6-18.22-11.6-32.12v-204.82Z"/>
  </g>
  <path class="cls-1" d="M444.11,241.91c-3.12,0-5.71-2.48-5.82-5.62-.1-2.72-.14-5.48-.14-8.22C438.15,102.31,540.45,0,666.21,0c46.92,0,91.98,14.14,130.33,40.88,37.47,26.14,65.97,62.38,82.41,104.81,1.16,3-.33,6.38-3.33,7.54-3.01,1.16-6.38-.33-7.54-3.33-15.6-40.26-42.64-74.65-78.2-99.46-36.38-25.37-79.14-38.78-123.66-38.78-119.33,0-216.41,97.08-216.41,216.41,0,2.6.05,5.23.14,7.81.11,3.22-2.4,5.92-5.62,6.03-.07,0-.14,0-.21,0Z"/>
  <path class="cls-1" d="M713.65,43.84,659.94,208.23c-31.7-20.35-32.55-44.02-31.44-53.25.35-2.95.87-5.84,1.51-8.69-4.82-11.02-15.25-19.17-27.67-20.55-16.17-1.8-30.41,7.58-35.98,21.38-.82-.11-1.66-.18-2.51-.18-5.68,0-10.78,2.44-14.34,6.32-.35.38.05.96.53.8,1.91-.63,3.95-.97,6.07-.97,2.9,0,5.64.65,8.12,1.79,0,0,25.35,5.23,40.18,39.15,0,0,0,0,0,0,14.25,37.36,57.2,34.15,93.58,29.98-13.52-3.19-27.06-8.71-38.05-15.77ZM699.79,187.83c12.46-.9,25.15-2.57,36.97-6.78,18.27-6.52,28.59-20.04,33.6-38.47.41-1.52,4.53-21.01.93-20.24-.33.07-.55.27-.75.55-21.39,29.01-65.61,35.8-65.61,35.8,55.8-15.77,35.26-76.3,33.93-83.38-.06-.34-.53-.38-.66-.05-17.37,42.74-48.07,57.8-48.07,57.8,9.33-11.11,17.09-25.93,15.5-52.81-1.03-17.39,7.05-29.73,9.98-33.59.23-.31-.12-.71-.46-.53-1.88.95-3.74,1.93-5.58,2.96-19.58,10.88-35.63,27.63-48.91,45.45-2.07,2.77-4.05,5.61-5.97,8.51h.01c-5.44,8.83-10.09,17.1-13.71,25.34-2.06,4.85-3.85,9.8-5.32,14.86-1.09,4.03-1.92,8.11-2.42,12.32-2.99,25.03,19.47,42.36,29.27,48.65,15.49,9.94,36.2,16.71,54.44,17.87,29.34-1.14,52.96,12.71,60.16,17.46.93.61,2.15-.14,2.02-1.25-5.57-49.44-79.36-50.45-79.36-50.45ZM557.55,125.31s-10.36,6.92-7.27,15.48M550.68,141.92c.62-.22.95-.91.72-1.54-2.73-7.57,6.72-14.02,6.81-14.08.55-.37.7-1.11.33-1.66-.37-.55-1.11-.7-1.66-.33-.45.3-11.1,7.55-7.74,16.89.18.49.64.79,1.13.79.13,0,.27-.02.41-.07ZM550.27,140.79c8.56-3.09,7.27-15.48,7.27-15.48M550.68,141.92c9.34-3.37,8.12-16.19,8.06-16.74-.07-.66-.64-1.15-1.32-1.07-.66.07-1.14.66-1.07,1.32.01.11,1.08,11.5-6.49,14.23-.62.22-.95.91-.72,1.54.18.49.64.79,1.13.79.13,0,.27-.02.41-.07ZM522.79,131.51s10.91,6.03,17.1-.65M540.76,131.68c.45-.49.42-1.24-.06-1.7-.49-.45-1.25-.42-1.7.06-5.47,5.9-15.54.47-15.64.41-.58-.32-1.31-.11-1.63.47-.32.58-.11,1.31.47,1.63.3.17,4.92,2.67,9.98,2.67,2.97,0,6.08-.86,8.58-3.55ZM539.88,130.87c-6.68-6.19-17.1.65-17.1.65M523.44,132.52c.1-.06,9.72-6.24,15.62-.77.48.45,1.24.42,1.7-.06.45-.49.42-1.24-.06-1.7-7.28-6.75-18.11.22-18.57.52-.55.36-.71,1.11-.34,1.66.23.35.61.54,1,.54.23,0,.45-.06.66-.2ZM548.37,168.2s7.9,9.64,16.12,5.73M565,175.01c.6-.28.85-1,.57-1.6-.28-.6-1-.86-1.6-.57-7.27,3.45-14.6-5.32-14.68-5.41-.42-.51-1.17-.59-1.69-.17-.51.42-.59,1.18-.17,1.69.29.35,5.93,7.12,12.92,7.12,1.5,0,3.06-.31,4.64-1.07ZM564.49,173.93c-3.91-8.22-16.12-5.73-16.12-5.73M565,175.01c.6-.28.85-1,.57-1.6-4.26-8.96-16.91-6.5-17.44-6.39-.65.13-1.07.77-.94,1.41.13.65.76,1.07,1.41.94.11-.02,11.34-2.2,14.8,5.07.21.43.64.68,1.08.68.17,0,.35-.04.51-.12ZM554.68,145.26c-12.81-20.56-24.34-32.3-24.53-32.49-.94-.94-2.46-.94-3.39,0-.94.94-.94,2.45,0,3.39.18.18,11.32,11.53,23.76,31.45,1.31-.93,2.71-1.71,4.17-2.35ZM562,157.85c-1.89-.76-3.87-1.17-5.89-1.17-.08,0-.15,0-.23,0,6.37,11.28,12.73,24.63,17.81,39.79.34,1,1.27,1.64,2.28,1.64.25,0,.51-.04.76-.12,1.26-.42,1.93-1.78,1.51-3.04-4.66-13.91-10.39-26.34-16.24-37.1Z"/>
</svg>