<svg width="1440" height="522" viewBox="0 0 1440 522" fill="none" xmlns="http://www.w3.org/2000/svg">
<path d="M244 96.9596C80.8 102.218 4 116.677 -14 123.25L-52 327H1440L1560 138.038C1556.67 91.4824 1528 -1.3007 1440 0.0138208C1330 1.65697 920 82.1713 782 96.9596C644 111.748 448 90.387 244 96.9596Z" fill="#A4EFE1"/>
<path d="M1264 425.04C1427.2 419.782 1504 405.323 1522 398.75L1560 195L68 195L-52 383.962C-48.6666 430.518 -20 523.301 68 521.986C178 520.343 588 439.829 726 425.04C864 410.252 1060 431.613 1264 425.04Z" fill="#A4EFE1"/>
</svg>
