<svg width="408" height="313" viewBox="0 0 408 313" fill="none" xmlns="http://www.w3.org/2000/svg">
<path d="M407.998 142.943V2.67782C407.998 0.91836 405.559 -0.359346 403.058 0.090993C378.329 4.59438 353.937 11.0876 332.092 18.136C297.115 29.4259 267.032 44.8735 224.798 49.5864C184.529 54.0688 142.326 51.6391 101.52 50.6861C90.812 50.4347 80.6564 50.5394 71.0224 50.9793C31.1977 52.7807 0.332031 75.4756 0.332031 102.726V170.057V310.322C0.332031 312.082 2.77122 313.359 5.27177 312.909C30.0011 308.406 54.393 301.923 76.2383 294.864C111.215 283.574 141.299 268.126 183.532 263.414C223.801 258.931 266.004 261.361 306.81 262.314C323.9 262.712 339.548 262.209 354.014 260.89C385.018 258.051 407.998 239.766 407.998 218.411V142.932V142.943Z" fill="#466FD1"/>
</svg>
