<svg width="611" height="379" viewBox="0 0 611 379" fill="none" xmlns="http://www.w3.org/2000/svg">
<path d="M611 173.084V3.24632C611 1.11589 607.344 -0.431203 603.596 0.114084C566.533 5.56696 529.975 13.4292 497.234 21.9636C444.811 35.6338 399.723 54.3385 336.425 60.045C276.07 65.4725 212.818 62.5305 151.658 61.3765C135.609 61.0721 120.388 61.1989 105.949 61.7315C46.2607 63.9127 0 91.3926 0 124.389V205.916V375.754C0 377.884 3.65579 379.431 7.40355 378.886C44.4673 373.433 81.0252 365.583 113.766 357.036C166.189 343.366 211.277 324.661 274.575 318.955C334.93 313.527 398.182 316.469 459.342 317.623C484.956 318.105 508.408 317.497 530.09 315.899C576.557 312.462 611 290.321 611 264.464V173.072V173.084Z" fill="#F4E04D"/>
</svg>
