<svg width="407" height="313" viewBox="0 0 407 313" fill="none" xmlns="http://www.w3.org/2000/svg">
<path d="M407 142.943V2.67782C407 0.91836 404.565 -0.359346 402.068 0.090993C377.379 4.59438 353.027 11.0876 331.218 18.136C296.298 29.4259 266.264 44.8735 224.1 49.5864C183.896 54.0688 141.762 51.6391 101.022 50.6861C90.3321 50.4347 80.1931 50.5394 70.5749 50.9793C30.8152 52.7807 0 75.4756 0 102.726V170.057V310.322C0 312.082 2.4352 313.359 4.93166 312.909C29.6206 308.406 53.9726 301.923 75.7822 294.864C110.702 283.574 140.736 268.126 182.9 263.414C223.104 258.931 265.238 261.361 305.978 262.314C323.039 262.712 338.661 262.209 353.104 260.89C384.057 258.051 407 239.766 407 218.411V142.932V142.943Z" fill="#A4EFE1"/>
</svg>
